<svg id="Layer_1" enable-background="new 0 0 509.542 509.542" height="512" viewBox="0 0 509.542 509.542" width="512" xmlns="http://www.w3.org/2000/svg"><g><g><g><g><g><g><path d="m253.378 115.449-.526 3.621c-1.62 11.157 7.033 21.157 18.307 21.157 11.585 0 20.319-10.527 18.181-21.913l-.538-2.864h-35.424z" fill="#80391b"/><g id="XMLID_785_"><path d="m296.527 483.015c-11.956 0-21.648-9.692-21.648-21.648v-173.035c0-11.956 9.692-21.648 21.648-21.648s21.648 9.692 21.648 21.648v173.035c0 11.956-9.692 21.648-21.648 21.648z" fill="#55696e"/></g><g id="XMLID_784_"><path d="m243.878 483.015c-11.956 0-21.648-9.692-21.648-21.648v-173.035c0-11.956 9.692-21.648 21.648-21.648s21.648 9.692 21.648 21.648v173.035c0 11.956-9.693 21.648-21.648 21.648z" fill="#748488"/></g><ellipse cx="270.206" cy="66.144" fill="#80391b" rx="37.388" ry="37.388" transform="matrix(.055 -.999 .999 .055 189.221 332.278)"/><path d="m178.354 203.215v87.335c0 9.964 8.077 18.041 18.04 18.041s18.04-8.077 18.04-18.041v-87.335l-14.673-11.474z" fill="#80391b"/><path d="m318.008 151.53h.622c3.78 0 7.239 3.116 7.277 6.547 0 0 31.781-2.379 31.78-2.409-.117-23.423-15.268-40.218-39.058-40.218h-29.827c.037 9.313-8.664 17.129-17.744 17.129-9.732 0-16.973-7.788-17.681-17.129h-31.597c-23.828 0-43.31 19.055-43.427 42.478v.091 45.198h36.08v-45.133c.034-3.433 3.529-6.553 7.347-6.553h.448v136.803h95.946z" fill="#e64937"/></g></g></g></g><g><g><g><g><path d="m400.933 115.449-.526 3.621c-1.62 11.157 7.033 21.157 18.307 21.157 11.585 0 20.319-10.527 18.181-21.913l-.538-2.864h-35.424z" fill="#ffcd9b"/><path d="m473.462 203.215v87.335c0 9.964 8.077 18.041 18.04 18.041s18.04-8.077 18.04-18.041v-87.335l-18.04-4.782z" fill="#ffcd9b"/><g id="XMLID_782_"><path d="m444.082 483.015c-11.956 0-21.648-9.692-21.648-21.648v-173.035c0-11.956 9.692-21.648 21.648-21.648s21.648 9.692 21.648 21.648v173.035c0 11.956-9.692 21.648-21.648 21.648z" fill="#695a6e"/></g><g id="XMLID_781_"><path d="m391.433 483.015c-11.956 0-21.648-9.692-21.648-21.648v-173.035c0-11.956 9.692-21.648 21.648-21.648s21.648 9.692 21.648 21.648v173.035c0 11.956-9.693 21.648-21.648 21.648z" fill="#828291"/></g><ellipse cx="417.761" cy="66.144" fill="#ffcd9b" rx="37.388" ry="37.388" transform="matrix(.055 -.999 .999 .055 328.616 479.607)"/><path d="m325.909 203.215v87.335c0 9.964 8.077 18.041 18.04 18.041s18.04-8.077 18.04-18.041v-87.335l-14.673-11.474z" fill="#ffcd9b"/><path d="m509.542 157.927c-.117-23.423-19.568-42.478-43.357-42.478h-29.827c.037 9.313-8.664 17.129-17.744 17.129-9.731 0-16.973-7.789-17.681-17.129h-31.597c-23.828 0-43.31 19.055-43.427 42.478v.091 45.198h36.08v-45.132c.034-3.433 3.529-6.554 7.347-6.554h.448v136.803h95.946l-.168-136.803h.622c3.78 0 7.239 3.117 7.277 6.548v45.138h36.08v-45.198c.001-.03.001-.061.001-.091z" fill="#39ae96"/></g></g></g></g></g><g id="XMLID_5835_"><g><path d="m153.371 502.161c-13.26-3.658-21.045-17.372-17.387-30.633l28.979-105.056-37.811-93.635c-5.15-12.755 1.014-27.27 13.769-32.42 12.756-5.149 27.27 1.014 32.42 13.769l40.968 101.455c2.048 5.072 2.369 10.676.915 15.949l-31.222 113.185c-3.656 13.261-17.375 21.044-30.631 17.386z" fill="#414b82"/></g></g><g id="XMLID_5832_"><g><path d="m95.253 503.021c-13.732-.807-24.21-12.593-23.403-26.324l6.292-107.096-.964-84.082c-.004-13.755 12.083-23.709 25.839-23.713h.008c13.754 0 24.005 7.695 24.009 21.449l.922 87.067c0 .489-.014.979-.043 1.468l-6.335 107.829c-.807 13.723-12.589 24.208-26.325 23.402z" fill="#5f6e9b"/></g></g><circle id="XMLID_5830_" cx="145.632" cy="50.569" fill="#ffb69e" r="44.08"/><path id="XMLID_5834_" d="m189.044 291.775-111.866 5.08-7.41-163.169c-.732-16.126 11.747-29.793 27.873-30.525l53.469-2.428c16.126-.732 29.793 11.747 30.525 27.873z" fill="#64afff"/><g id="XMLID_5826_"><path d="m49.432 175.83 26.223-9.934 4.084-25.164-18.069-15.075-47.916 18.153c-11.26 4.266-16.741 17.02-12.103 28.119l35.151 84.126c4.506 10.784 16.937 15.999 27.854 11.437 10.85-4.534 15.97-17.005 11.436-27.854z" fill="#ffb69e"/></g><g id="XMLID_721_"><path d="m133.097 121.367c-4.165-10.996-16.452-16.533-27.454-12.368l-43.972 16.658 13.984 40.239 45.074-17.075c10.996-4.166 16.533-16.457 12.368-27.454z" fill="#4699f2"/></g></g></svg>